<svg width="30" height="30" viewBox="0 0 30 30" fill="none" xmlns="http://www.w3.org/2000/svg">
<path d="M29.0415 27.3252L21.9015 19.8992C23.7373 17.7169 24.7432 14.971 24.7432 12.1125C24.7432 5.43377 19.3094 0 12.6307 0C5.95196 0 0.518188 5.43377 0.518188 12.1125C0.518188 18.7912 5.95196 24.225 12.6307 24.225C15.138 24.225 17.5273 23.4687 19.5701 22.0331L26.7644 29.5155C27.0651 29.8278 27.4695 30 27.9029 30C28.3132 30 28.7024 29.8436 28.9978 29.5592C29.6256 28.9552 29.6456 27.9535 29.0415 27.3252ZM12.6307 3.15978C17.5673 3.15978 21.5834 7.17586 21.5834 12.1125C21.5834 17.0491 17.5673 21.0652 12.6307 21.0652C7.69405 21.0652 3.67797 17.0491 3.67797 12.1125C3.67797 7.17586 7.69405 3.15978 12.6307 3.15978Z" fill="white"/>
</svg>
