<svg width="18" height="13" viewBox="0 0 18 13" fill="none" xmlns="http://www.w3.org/2000/svg">
<path d="M0.363971 6.79159C0.411764 6.8612 0.524732 6.93544 0.611631 6.95865C0.69853 6.98649 2.99265 7.49693 5.70388 8.10018C8.41511 8.70343 10.6701 9.20459 10.7092 9.21851C10.7831 9.24172 10.7874 9.36237 10.7874 10.9076C10.7874 11.8311 10.8048 12.6246 10.8265 12.6849C10.9265 12.9587 11.2132 13.0793 11.4479 12.9447C11.5956 12.8612 17.9435 6.79159 17.9739 6.70806C18.0087 6.61062 18.0087 6.38788 17.9739 6.29043C17.9435 6.2069 11.5912 0.137273 11.4435 0.0537459C11.2176 -0.0761846 10.9178 0.0398252 10.8352 0.290406C10.8048 0.383214 10.7874 1.02823 10.7874 2.09552C10.7874 3.63613 10.7831 3.75678 10.7092 3.77998C10.6701 3.7939 8.41511 4.29506 5.70388 4.89831C2.99265 5.50156 0.69853 6.01665 0.611631 6.03985C0.403075 6.09553 0.272727 6.27651 0.272727 6.49925C0.272727 6.60134 0.307487 6.72199 0.363971 6.79159ZM7.12901 5.55261C9.41444 5.04681 11.3523 4.60133 11.4305 4.56885C11.6825 4.46212 11.6999 4.34611 11.6999 2.87974C11.6999 2.16512 11.7086 1.58043 11.7216 1.58043C11.765 1.58043 16.8703 6.46212 16.8703 6.49925C16.8703 6.54101 11.765 11.4181 11.7216 11.4181C11.7086 11.4181 11.6999 10.8334 11.6999 10.1188C11.6999 8.65239 11.6825 8.53638 11.4305 8.42965C11.3523 8.39717 9.41444 7.95169 7.12901 7.44589C4.83924 6.93544 2.96658 6.51317 2.96658 6.49925C2.96658 6.48533 4.83924 6.05841 7.12901 5.55261Z" fill="#D3D3D3"/>
</svg>
