<svg width="18" height="13" viewBox="0 0 18 13" fill="none" xmlns="http://www.w3.org/2000/svg">
<path d="M17.636 6.20841C17.5882 6.1388 17.4753 6.06456 17.3884 6.04135C17.3015 6.01351 15.0074 5.50307 12.2961 4.89982C9.58489 4.29657 7.32988 3.79541 7.29078 3.78149C7.21691 3.75828 7.21257 3.63763 7.21257 2.09238C7.21257 1.16895 7.19519 0.37544 7.17346 0.315115C7.07353 0.041332 6.78676 -0.0793181 6.55214 0.0552532C6.40441 0.13878 0.056484 6.20841 0.0260696 6.29194C-0.00868976 6.38938 -0.00868976 6.61212 0.0260696 6.70957C0.056484 6.7931 6.40876 12.8627 6.55648 12.9463C6.78242 13.0762 7.08222 12.9602 7.16477 12.7096C7.19519 12.6168 7.21257 11.9718 7.21257 10.9045C7.21257 9.36387 7.21691 9.24322 7.29078 9.22002C7.32988 9.2061 9.58489 8.70494 12.2961 8.10169C15.0074 7.49844 17.3015 6.98335 17.3884 6.96015C17.5969 6.90447 17.7273 6.72349 17.7273 6.50075C17.7273 6.39866 17.6925 6.27801 17.636 6.20841ZM10.871 7.44739C8.58556 7.9532 6.64773 8.39867 6.56952 8.43116C6.31751 8.53788 6.30013 8.65389 6.30013 10.1203C6.30013 10.8349 6.29144 11.4196 6.27841 11.4196C6.23496 11.4196 1.12968 6.53788 1.12968 6.50075C1.12968 6.45899 6.23496 1.58194 6.27841 1.58194C6.29144 1.58194 6.30013 2.16663 6.30013 2.88125C6.30013 4.34761 6.31751 4.46362 6.56952 4.57035C6.64773 4.60283 8.58556 5.04831 10.871 5.55411C13.1608 6.06456 15.0334 6.48683 15.0334 6.50075C15.0334 6.51467 13.1608 6.94159 10.871 7.44739Z" fill="#D3D3D3"/>
</svg>
