<svg width="17" height="12" viewBox="0 0 17 12" fill="none" xmlns="http://www.w3.org/2000/svg">
<path d="M5.5738 0.0719948C5.51963 0.106831 4.25682 1.38879 2.77396 2.91809C-0.188391 5.97669 -0.0563546 5.81993 0.035055 6.14391C0.0722959 6.27628 0.417621 6.64555 2.79089 9.09103C4.28391 10.6308 5.5501 11.9127 5.60427 11.9441C5.88527 12.0974 6.28138 11.9197 6.3694 11.6027C6.38972 11.5365 6.40326 10.9931 6.40326 10.38V9.27218H10.3745C13.0829 9.27218 14.4101 9.28263 14.5489 9.3105C15.314 9.45333 15.9166 10.2023 15.9166 11.014C15.9166 11.1673 16.025 11.3449 16.1875 11.4599C16.4312 11.6306 16.807 11.5052 16.9357 11.2091C16.9932 11.0802 17 10.9617 17 9.82607C17 8.50579 16.9729 8.07034 16.8612 7.51645C16.6073 6.26583 15.9369 5.07444 15.0195 4.24535C14.2205 3.52424 13.2928 3.05047 12.2433 2.82404C11.8743 2.74391 11.8404 2.74043 9.13877 2.72998L6.40664 2.71953L6.39649 1.53859C6.38633 0.40642 6.38294 0.354166 6.31523 0.260109C6.1358 0.00928974 5.80063 -0.074317 5.5738 0.0719948ZM5.31988 2.68469C5.31988 3.41625 5.32327 3.4476 5.39775 3.55908C5.43838 3.62527 5.5264 3.70887 5.59073 3.74719C5.70584 3.82035 5.76 3.82035 8.77314 3.84125C12.1891 3.86215 11.9725 3.84822 12.7173 4.11645C14.2205 4.65989 15.3783 5.97669 15.7609 7.5687C15.8455 7.92751 15.9403 8.66603 15.9065 8.70435C15.8963 8.7148 15.8455 8.69042 15.7914 8.6521C15.6119 8.5232 15.2124 8.33509 14.9484 8.25497L14.6809 8.17485L10.2289 8.16439L5.77693 8.15743L5.62458 8.23407C5.53994 8.27935 5.43838 8.36644 5.39775 8.43263C5.32327 8.54759 5.31988 8.57894 5.31988 9.3105C5.31988 9.73201 5.30973 10.0734 5.2928 10.0734C5.27926 10.0734 4.3787 9.15722 3.28856 8.0355L1.30802 5.9976L3.28856 3.95969C4.3787 2.83797 5.27926 1.92179 5.2928 1.92179C5.30973 1.92179 5.31988 2.26318 5.31988 2.68469Z" fill="black"/>
</svg>
