<svg width="13" height="13" viewBox="0 0 13 13" fill="none" xmlns="http://www.w3.org/2000/svg">
<path d="M6.49922 13C7.21719 13 7.79922 12.418 7.79922 11.7C7.79922 10.982 7.21719 10.4 6.49922 10.4C5.78125 10.4 5.19922 10.982 5.19922 11.7C5.19922 12.418 5.78125 13 6.49922 13Z" fill="#D90A2C"/>
<path d="M6.49922 2.6C7.21719 2.6 7.79922 2.01797 7.79922 1.3C7.79922 0.582029 7.21719 0 6.49922 0C5.78125 0 5.19922 0.582029 5.19922 1.3C5.19922 2.01797 5.78125 2.6 6.49922 2.6Z" fill="#D90A2C"/>
<path d="M2.82539 11.477C3.54336 11.477 4.12539 10.895 4.12539 10.177C4.12539 9.45904 3.54336 8.87701 2.82539 8.87701C2.10742 8.87701 1.52539 9.45904 1.52539 10.177C1.52539 10.895 2.10742 11.477 2.82539 11.477Z" fill="#D90A2C"/>
<path d="M10.177 4.12295C10.8949 4.12295 11.477 3.54092 11.477 2.82295C11.477 2.10498 10.8949 1.52295 10.177 1.52295C9.45898 1.52295 8.87695 2.10498 8.87695 2.82295C8.87695 3.54092 9.45898 4.12295 10.177 4.12295Z" fill="#D90A2C"/>
<path d="M1.30065 7.80064C2.01898 7.80064 2.6013 7.21832 2.6013 6.49999C2.6013 5.78166 2.01898 5.19934 1.30065 5.19934C0.58232 5.19934 0 5.78166 0 6.49999C0 7.21832 0.58232 7.80064 1.30065 7.80064Z" fill="#D90A2C"/>
<path d="M11.7004 7.80001C12.4184 7.80001 13.0004 7.21798 13.0004 6.50001C13.0004 5.78204 12.4184 5.20001 11.7004 5.20001C10.9824 5.20001 10.4004 5.78204 10.4004 6.50001C10.4004 7.21798 10.9824 7.80001 11.7004 7.80001Z" fill="#D90A2C"/>
<path d="M2.82539 4.12362C3.54336 4.12362 4.12539 3.54159 4.12539 2.82362C4.12539 2.10565 3.54336 1.52362 2.82539 1.52362C2.10742 1.52362 1.52539 2.10565 1.52539 2.82362C1.52539 3.54159 2.10742 4.12362 2.82539 4.12362Z" fill="#D90A2C"/>
<path d="M10.177 11.4777C10.8949 11.4777 11.477 10.8956 11.477 10.1777C11.477 9.45968 10.8949 8.87766 10.177 8.87766C9.45898 8.87766 8.87695 9.45968 8.87695 10.1777C8.87695 10.8956 9.45898 11.4777 10.177 11.4777Z" fill="#D90A2C"/>
</svg>
