<svg width="55" height="55" viewBox="0 0 55 55" fill="none" xmlns="http://www.w3.org/2000/svg">
<g opacity="0.3">
<path d="M51.7773 8.59375H49.1992V3.22266C49.1992 1.44568 47.7535 0 45.9766 0H9.02344C7.24646 0 5.80078 1.44568 5.80078 3.22266V8.59375H3.22266C1.44568 8.59375 0 10.0394 0 11.8164V42.7537C0 44.5307 1.44568 45.9763 3.22266 45.9763H22.1289V48.5543H20.0853C18.3083 48.5543 16.8627 49.9999 16.8627 51.7769V53.9258C16.8627 54.5191 17.3436 55 17.9369 55H37.0632C37.6565 55 38.1375 54.5191 38.1375 53.9258V51.7769C38.1375 49.9999 36.6918 48.5543 34.9148 48.5543H32.8711V45.9763H51.7773C53.5543 45.9763 55 44.5307 55 42.7537V11.8164C55 10.0394 53.5543 8.59375 51.7773 8.59375ZM51.7773 10.7422C52.3697 10.7422 52.8516 11.2241 52.8516 11.8164V36.5232H49.1992V10.7422H51.7773ZM9.02344 2.14844H45.9766C46.5689 2.14844 47.0508 2.63033 47.0508 3.22266V8.59375H7.94922V3.22266C7.94922 2.63033 8.43111 2.14844 9.02344 2.14844ZM3.22266 10.7422H5.80078V18.7978C5.80078 19.391 6.28171 19.872 6.875 19.872C7.46829 19.872 7.94922 19.391 7.94922 18.7978V10.7422H47.0508V36.5232H41.5723V32.9832C41.5723 32.39 41.0913 31.909 40.498 31.909H39.1004C38.8547 31.0632 38.5176 30.25 38.0924 29.4773L39.0813 28.4886C39.5007 28.0691 39.5007 27.3889 39.0813 26.9693L35.8199 23.708C35.4004 23.2886 34.7203 23.2886 34.3007 23.708L33.312 24.6968C32.5394 24.2717 31.7261 23.9346 30.8802 23.689V22.2913C30.8802 21.698 30.3993 21.2171 29.806 21.2171H25.1938C24.6005 21.2171 24.1195 21.698 24.1195 22.2913V23.689C23.2737 23.9347 22.4605 24.2717 21.6878 24.6968L20.6991 23.708C20.2796 23.2886 19.5994 23.2886 19.1799 23.708L15.9185 26.9693C15.499 27.3888 15.499 28.069 15.9185 28.4886L16.9073 29.4773C16.4822 30.2499 16.1451 31.0632 15.8994 31.909H14.502C13.9087 31.909 13.4277 32.39 13.4277 32.9832V36.5232H7.94922V28.4657C7.94922 27.8724 7.46829 27.3915 6.875 27.3915C6.28171 27.3915 5.80078 27.8724 5.80078 28.4657V36.5232H2.14844V11.8164C2.14844 11.2241 2.63033 10.7422 3.22266 10.7422ZM19.0185 28.5499L18.1975 27.7289L19.9396 25.9867L20.7607 26.8078C21.1191 27.166 21.6793 27.2252 22.1047 26.9495C23.1213 26.2903 24.236 25.8283 25.4179 25.5763C25.9138 25.4706 26.2682 25.0326 26.2682 24.5257V23.3653H28.732V24.5257C28.732 25.0326 29.0864 25.4706 29.5823 25.5763C30.7641 25.8283 31.8788 26.2902 32.8955 26.9495C33.3209 27.2252 33.8811 27.1661 34.2395 26.8078L35.0606 25.9867L36.8027 27.7289L35.9817 28.5499C35.6233 28.9084 35.5642 29.4686 35.84 29.894C36.4992 30.9106 36.9612 32.0254 37.2132 33.2072C37.3189 33.703 37.7569 34.0575 38.2638 34.0575H39.4238V36.5232H32.7268C32.8224 36.1204 32.8717 35.7064 32.8717 35.2894C32.8717 32.3273 30.4619 29.9176 27.5 29.9176C24.5381 29.9176 22.1283 32.3274 22.1283 35.2894C22.1283 35.7064 22.1776 36.1204 22.2732 36.5232H15.5762V34.0575H16.7364C17.2434 34.0575 17.6813 33.7031 17.787 33.2072C18.039 32.0253 18.5011 30.9105 19.1602 29.894C19.4361 29.4687 19.377 28.9084 19.0185 28.5499ZM24.2767 35.2894C24.2767 33.5121 25.7226 32.0661 27.5 32.0661C29.2774 32.0661 30.7233 33.5121 30.7233 35.2894C30.7233 35.7136 30.6375 36.1326 30.4745 36.5232H24.5255C24.3625 36.1326 24.2767 35.7136 24.2767 35.2894ZM35.9889 51.7769V52.8516H19.0111V51.7769C19.0111 51.1846 19.493 50.7027 20.0853 50.7027H34.9148C35.5071 50.7027 35.9889 51.1846 35.9889 51.7769ZM30.7227 48.5543H24.2773V45.9763H30.7227V48.5543ZM51.7773 43.8279H3.22266C2.63033 43.8279 2.14844 43.346 2.14844 42.7537V38.6717H52.8516V42.7537C52.8516 43.346 52.3697 43.8279 51.7773 43.8279Z" fill="#17161A"/>
<path d="M30.7227 6.44531H42.3242C42.9175 6.44531 43.3984 5.96438 43.3984 5.37109C43.3984 4.7778 42.9175 4.29688 42.3242 4.29688H30.7227C30.1294 4.29688 29.6484 4.7778 29.6484 5.37109C29.6484 5.96438 30.1294 6.44531 30.7227 6.44531Z" fill="#17161A"/>
<path d="M17.4023 6.44531C17.6849 6.44531 17.962 6.33037 18.1618 6.13057C18.3616 5.93076 18.4766 5.65361 18.4766 5.37109C18.4766 5.08857 18.3616 4.81143 18.1618 4.61162C17.962 4.41182 17.6849 4.29688 17.4023 4.29688C17.1198 4.29688 16.8427 4.41182 16.6429 4.61162C16.4431 4.81143 16.3281 5.08857 16.3281 5.37109C16.3281 5.65361 16.4431 5.93076 16.6429 6.13057C16.8427 6.33037 17.1198 6.44531 17.4023 6.44531Z" fill="#17161A"/>
<path d="M12.6758 6.44531C12.9583 6.44531 13.2354 6.33037 13.4353 6.13057C13.6351 5.93076 13.75 5.65361 13.75 5.37109C13.75 5.08857 13.6351 4.81143 13.4353 4.61162C13.2354 4.41182 12.9583 4.29688 12.6758 4.29688C12.3933 4.29688 12.1161 4.41182 11.9163 4.61162C11.7165 4.81143 11.6016 5.08857 11.6016 5.37109C11.6016 5.65361 11.7165 5.93076 11.9163 6.13057C12.1161 6.33037 12.3933 6.44531 12.6758 6.44531Z" fill="#17161A"/>
<path d="M22.1289 6.44531C22.4114 6.44531 22.6886 6.33037 22.8884 6.13057C23.0882 5.93076 23.2031 5.65361 23.2031 5.37109C23.2031 5.08857 23.0882 4.81143 22.8884 4.61162C22.6886 4.41182 22.4114 4.29688 22.1289 4.29688C21.8464 4.29688 21.5692 4.41182 21.3694 4.61162C21.1696 4.81143 21.0547 5.08857 21.0547 5.37109C21.0547 5.65361 21.1696 5.93076 21.3694 6.13057C21.5692 6.33037 21.8464 6.44531 22.1289 6.44531Z" fill="#17161A"/>
<path d="M12.0312 15.8982H14.5877C15.181 15.8982 15.6619 15.4173 15.6619 14.824C15.6619 14.2307 15.181 13.7498 14.5877 13.7498H12.0312C11.438 13.7498 10.957 14.2307 10.957 14.824C10.957 15.4173 11.438 15.8982 12.0312 15.8982Z" fill="#17161A"/>
<path d="M19.3145 15.8982H29.1691C29.7624 15.8982 30.2433 15.4173 30.2433 14.824C30.2433 14.2307 29.7624 13.7498 29.1691 13.7498H19.3145C18.7212 13.7498 18.2402 14.2307 18.2402 14.824C18.2402 15.4173 18.7212 15.8982 19.3145 15.8982Z" fill="#17161A"/>
<path d="M12.0312 21.0543H18.2617C18.855 21.0543 19.3359 20.5733 19.3359 19.98C19.3359 19.3867 18.855 18.9058 18.2617 18.9058H12.0312C11.438 18.9058 10.957 19.3867 10.957 19.98C10.957 20.5733 11.438 21.0543 12.0312 21.0543Z" fill="#17161A"/>
<path d="M33.8955 15.8982H42.9688C43.5621 15.8982 44.043 15.4173 44.043 14.824C44.043 14.2307 43.5621 13.7498 42.9688 13.7498H33.8955C33.3022 13.7498 32.8213 14.2307 32.8213 14.824C32.8213 15.4173 33.3022 15.8982 33.8955 15.8982Z" fill="#17161A"/>
<path d="M42.969 18.9058H35.6172C35.0239 18.9058 34.543 19.3867 34.543 19.98C34.543 20.5733 35.0239 21.0543 35.6172 21.0543H42.969C43.5623 21.0543 44.0432 20.5733 44.0432 19.98C44.0432 19.3867 43.5623 18.9058 42.969 18.9058Z" fill="#17161A"/>
<path d="M6.875 24.706C7.15752 24.706 7.43467 24.591 7.63447 24.3912C7.83428 24.1914 7.94922 23.9143 7.94922 23.6317C7.94922 23.3492 7.83428 23.0721 7.63447 22.8723C7.43467 22.6725 7.15752 22.5575 6.875 22.5575C6.59248 22.5575 6.31533 22.6725 6.11553 22.8723C5.91572 23.0721 5.80078 23.3492 5.80078 23.6317C5.80078 23.9143 5.91572 24.1914 6.11553 24.3912C6.31533 24.591 6.59248 24.706 6.875 24.706Z" fill="#17161A"/>
</g>
</svg>
